<?xml version="1.0" encoding="utf-8"?>
<!-- Generator: Adobe Illustrator 28.2.0, SVG Export Plug-In . SVG Version: 6.00 Build 0)  -->
<svg version="1.1" id="Layer_2_00000181050287438451895110000017288996749414946944_"
	 xmlns="http://www.w3.org/2000/svg" xmlns:xlink="http://www.w3.org/1999/xlink" x="0px" y="0px" viewBox="0 0 1234.3 168.4"
	 style="enable-background:new 0 0 1234.3 168.4;" xml:space="preserve">
<style type="text/css">
	.st0{fill:#FFFFFF;}
	.st1{fill:#FDD5B6;}
</style>
<g id="Layer_1-2">
	<g>
		<path class="st0" d="M42.1,45.4c12.3-4.4,23.2-5.5,34-0.5c5.1,2.4,6.2,7.4,6.2,12.7c0,14.7,0.1,29.3-0.1,44c0,3.4,0.8,4.2,4.2,3.6
			c11.2-1.9,21.2-5.8,28.4-15c12.1-15.3,8.1-39-8.5-51.9c-7.9-6.2-17.1-8.9-26.8-9.6c-12.3-0.8-24.3,1.1-35.7,5.8
			c-23,9.5-32.2,29.6-24.1,53.6c-7.5-0.3-12.1-4.6-15.1-10.5C-1,66.5-1.5,54.8,3,43.3C11.4,21.9,27.4,8.4,49.3,2.9
			c22.3-5.6,44.5-3,65.2,7.2c19,9.3,29.8,24.7,30.1,46.3c0.3,22.2-9.9,38.5-28.7,49.7c-8.9,5.4-18.8,8.4-29.1,9.8
			c-3.5,0.5-4.6,1.6-4.5,5.3c0.2,14.1-0.1,28.3,0.1,42.5c0.1,3.8-1,4.8-4.7,4.7c-8-0.3-16-0.3-24,0c-3.9,0.2-4.6-1.2-4.6-4.8
			c0.2-35.8,0.1-71.6,0.1-107.4C49.2,51.6,49.3,47,42.1,45.4L42.1,45.4z"/>
		<path class="st0" d="M721.7,88.3c-8.7-0.8-13.4-6-16.3-12.8c-5.5-13.1-4.5-26.2,2.2-38.5C721,12.8,742,1,769.3,0.5
			c20.2-0.4,39.5,3.1,56.3,15.3c24,17.5,28,53.4,8.9,76.2c-11.2,13.5-26.1,20.2-42.8,23.5c-7.5,1.4-7.5,1.3-7.5,9.1
			c0,13-0.1,26,0.1,39c0.1,3.6-0.7,5-4.6,4.8c-8-0.3-16-0.3-24,0c-3.8,0.1-4.7-1-4.7-4.7c0.1-35.6,0.1-71.3,0.1-106.9
			c0-4.5,0.4-9.3-5.5-11c7.3-5.5,27.2-5.4,34,0.1c3.7,3,4.6,7.2,4.6,11.6c0,13.7,0,27.3,0,41c0,7.2,0,7.3,7,6.1
			c10.5-1.9,19.6-6.3,26.1-15.1c11.4-15.4,7.2-38.5-9-51.2c-7.8-6.1-16.7-8.9-26.3-9.6c-12.8-1-25.3,1.1-37.1,6.2
			C722.5,44.5,713.6,64.8,721.7,88.3L721.7,88.3z"/>
		<path class="st0" d="M191.5,107.7c0-8.4,0.2-16.2-0.1-23.9c-0.1-4.2-2-7.7-6.7-7.9c-4.6-0.3-6.8,2.7-7.7,6.9
			c-1.1,5.3,0.3,10.1,3.4,14.9c-6,0.7-11.5,0.3-17-1.2c-4.5-1.2-7.9-3.6-9-8.4c-1.1-5.2,0.4-9.6,4.5-12.9c6.2-5.1,13.7-6.7,21.4-7.3
			c10.9-0.9,21.6,0.2,31.5,5.4c8.2,4.3,12.5,11.3,12.6,20.6c0.1,12.7,0,25.3,0.1,37.9c0,2.5,0.2,5,0.6,7.4
			c1.6,8.1,7.8,10.2,14.4,5.1c0.5-0.4,1-0.7,2.1-1.4c-0.8,7.4-4.4,12-10.5,14.5c-12.2,5.1-28.5,3.1-35.3-9.4
			c-1.7-3.2-2.8-0.8-3.9,0.3c-8,7.3-17.4,10.4-28.1,8.8c-9.7-1.5-17.2-6.3-20.4-16c-3.6-10.7-2.2-20.8,5.3-29.5
			C158.6,100.2,176.5,98.6,191.5,107.7L191.5,107.7z M191.6,127.9c0-1.5,0-3,0-4.5c0.1-4.6-0.8-8.7-6.1-10
			c-4.9-1.3-9.4,0.7-12.3,5.3c-3.2,5.1-3.7,10.7-2.4,16.3c1.2,5.5,5.7,8,11.3,6.8C189.8,140.2,191.6,137.5,191.6,127.9L191.6,127.9z
			"/>
		<path class="st0" d="M381.2,144.4c0.3,5.6-3.1,10.6-9.2,13c-20.9,8.1-39.5-2.6-39.7-24.7c-0.2-17.5-0.1-35,0-52.4
			c0-3.1-0.3-5.3-4.2-4.7c-3.3,0.5-2.7-1.9-2.8-3.8c0-2.1-0.5-4.7,3-4.1c3.1,0.5,4-0.8,3.9-3.9c-0.2-10.2,0-20.3-0.1-30.5
			c0-4.4-0.6-8.5-6.3-9.5c11-4.7,22.1-5.7,33.1-0.5c5.1,2.4,6.3,7.5,6.3,12.7c0,9.2,0.1,18.3,0,27.5c-0.1,3.1,0.6,4.7,4.1,4.2
			c1.3-0.2,2.7,0,4,0c2.7-0.1,5-0.5,5.1,3.8c0.1,4.4-2.2,4.2-5.2,4.2c-7.9-0.1-7.9,0-7.9,7.8c0,15.8,0,31.6,0,47.4c0,1.5,0,3,0,4.5
			C365.7,146.4,371.2,149.6,381.2,144.4L381.2,144.4z"/>
		<path class="st0" d="M1158.4,143.3c-1,7.6-5.4,12.6-12.6,14.9c-21.3,7-37.6-4.7-37.8-27.6c-0.2-31.3-0.1-62.6-0.1-93.8
			c0-1.7,0-3.3-0.1-5c-0.2-4-1.4-7.1-6.1-8c11-4.7,22.1-5.6,33.1-0.5c5.6,2.6,6.3,8.1,6.3,13.7c0,31.5,0,62.9,0,94.3
			c0,2.7-0.1,5.4,0.4,8c1.3,7.9,8.4,10.3,14.5,5c0.6-0.5,0.8-1.5,1.2-2.2C1157.6,142.5,1158,142.9,1158.4,143.3L1158.4,143.3z"/>
		<path class="st0" d="M469.6,23.9c12.3-4.8,23.3-5.6,34.1-0.8c5.5,2.5,6.6,7.9,6.6,13.5c0,31.4,0,62.9,0,94.3c0,2.7-0.1,5.4,0.3,8
			c0.5,3.4,1.7,6.4,5.5,7.6c3.5,1.1,6.5,0.3,9.1-2.2c0.6-0.6,1.2-1.1,2.3-2.2c-0.7,7.7-4.2,12.7-10.5,15.2
			c-21.2,8.3-39.7-2.7-39.8-25c-0.1-32.6,0-65.2-0.1-97.8C477.2,29.8,477.2,25.1,469.6,23.9L469.6,23.9z"/>
		<path class="st0" d="M1203.8,94.3c1-1.2,1.8-2,2.4-2.9c3.1-4.7,2.4-10.6-1.4-13.6c-3.9-3.1-12.1-2.8-15.4,0.5
			c-2.7,2.6-2.8,7.1-0.2,10.5c2.1,2.8,5,4.2,8.1,5.7c7.9,3.8,16.3,6.7,23.6,11.8c10.2,7.2,14.4,17.5,13.2,29.5
			c-1.1,11.3-8.8,18-18.9,21.7c-14.7,5.5-29.3,5.7-43.3-2.4c-8.6-5-11.6-14.8-7.4-22.7c2.9-5.3,8.5-7.6,14.5-5.9
			c5.1,1.5,8.2,6.6,7.7,12c-0.3,3.6-3.1,5.3-5.3,7.4c5.9,4.4,16.6,4.7,22.2,0.8c5.3-3.7,5.3-10.3,0.1-14.3c-5.3-4-11.9-5.1-17.7-7.8
			c-1.8-0.8-3.7-1.4-5.5-2.3c-13.6-6.6-19.3-17.5-16.9-32.2c1.9-11.9,12.6-21.1,26.4-22.7c8.3-1,16.6-0.7,24.7,2
			c4.5,1.5,8.6,3.7,10.9,8.1c3.5,6.5,0.6,13-7.1,15.7C1213.8,95,1209.1,94.9,1203.8,94.3L1203.8,94.3z"/>
		<path class="st0" d="M264.3,146.3c7.1,3.9,13.8,4.1,20.6,1.4c3.3-1.3,5.5-3.7,5.9-7.4c0.4-3.8-1.5-6.3-4.4-8.3
			c-5.6-3.8-12.2-5.2-18.3-7.7c-11.5-4.6-20.3-11.5-21.5-24.9c-1.4-16.1,7.1-27.5,23.1-31.1c9.4-2.1,18.8-1.8,28.1,1.2
			c2.5,0.8,4.9,2,7.1,3.6c3.9,2.9,6.1,6.7,5.4,11.6c-0.7,4.9-4.4,7.2-8.6,8.8c-4.5,1.7-9.1,1.3-13.6,1.1c-0.4-1.3,0.6-1.6,1.1-2.2
			c3.3-4.6,3.4-10.4,0.1-13.8c-3.3-3.4-11.3-3.9-15.4-0.8c-3.6,2.7-3.8,8.1-0.5,11.9c3,3.4,7.2,4.8,11,6.6c6.7,3.2,13.8,5.7,20,10.1
			c10.4,7.4,14.5,17.7,13.2,29.9c-1.2,11.2-9,17.5-18.8,21.2c-14.5,5.5-29,5.7-42.9-2.1c-8.5-4.8-11.9-14.1-8.3-22.1
			c2.4-5.3,6.7-7.7,12.4-7.1c5.3,0.6,8.9,3.8,10.1,8.9C270.9,139.2,269.7,141.8,264.3,146.3L264.3,146.3z"/>
		<path class="st0" d="M911.4,157.4c11.2-13,21.4-25.2,32-37.1c2.4-2.8,2.5-4.6,0.6-7.6c-6.1-9.7-12.1-19.5-17.9-29.3
			c-3.2-5.4-6.9-10.2-13.9-11.4c10.2-6.8,21.2-5.8,32.1-3.4c12.3,2.8,15.8,14.7,22.7,23.9c5.7-6.7,11.4-13,16.6-19.8
			c3-3.9,6.3-5.9,11.3-5.2c2.2,0.3,4.6,0.1,7.9,0.1c-2.4,2.9-4.2,5.1-6,7.3c-7.1,8.4-14.1,16.8-21.4,25.1c-1.7,2-1.8,3.3-0.4,5.5
			c7.4,11.5,14.5,23.1,21.8,34.6c5.4,8.5,8.8,9.1,16.7,2.6c-0.9,7.8-5,12.8-11.9,15.4c-15.4,5.6-29.3,0.8-37.9-13.3
			c-2.9-4.7-5.9-9.3-8.5-14.1c-1.7-3.1-2.8-3.7-5.3-0.6c-6,7.4-12.5,14.3-18.4,21.7c-3.3,4.1-6.7,6.5-12.2,5.6
			C917,157.1,914.8,157.4,911.4,157.4L911.4,157.4z"/>
		<path class="st0" d="M419.5,109.6c1.8,0,3.2,0,4.6,0c7.6,0,13.2-4.1,14.9-11.5c1.2-5.4,1.1-10.9-0.7-16.3
			c-2.1-6.3-7.1-7.3-11.7-2.4c-3.2,3.5-4.9,7.9-6,12.4c-3,12-2.9,24-0.3,36c1.8,8.4,4.8,16.3,14.3,18.6c9.6,2.3,17.2-1.1,22.7-10
			c-0.4,10.5-6.7,18-18.1,20.8c-10.2,2.6-20.5,1.7-30.3-2.4c-9.7-4.1-16.2-11.3-19.6-21.3c-3.8-11.3-4.8-22.8-2.3-34.4
			c4.5-20.9,21-32.9,42.7-31.5c6.6,0.4,12.9,1.7,18.5,5.2c10.6,6.5,15.4,18.9,11.3,29.2c-3.6,9.2-16.8,15.3-28.8,13.1
			C426.6,114.3,422.2,113.9,419.5,109.6L419.5,109.6z"/>
		<path class="st0" d="M1049.5,109.8c-0.5,7.7,0.3,14.2,2.1,20.4c2.3,7.9,5.8,15.1,15.2,16.6c9.3,1.4,16.6-1.9,21.3-10.7
			c-0.3,11.4-7.8,19.6-20.6,21.9c-8.9,1.6-18,0.9-26.5-2.4c-10.2-4-17.2-11.1-20.8-21.5c-4.3-12.6-5.1-25.4-1.5-38.3
			c5-18.3,21.3-29.1,41.5-28c6.8,0.4,13.2,1.7,19,5.3c10.4,6.5,15,18.7,11.2,28.8c-3.5,9.4-16.5,15.4-28.7,13.3
			C1057.5,114.4,1053.4,113.3,1049.5,109.8L1049.5,109.8z M1070.4,90c-0.1-0.8,0-2.9-0.5-4.8c-0.9-3.5-1.2-7.8-5.5-8.7
			c-4.6-0.9-7.3,2.5-9.3,6.1c-4,6.9-5.2,14.6-5.9,22.4c-0.3,3.5,1.3,4.3,4.2,4.5C1064,110.4,1070.6,103.3,1070.4,90L1070.4,90z"/>
		<path class="st0" d="M621.6,152.3c-4.4-0.7-8,0.6-11.6,3.2c-6.5,4.8-11.1,4.9-17.8,0.1c-4-2.9-8.1-3.9-13-3.4
			c-7.6,0.9-12.2-1.7-15-8.7c-1.9-4.7-4.9-7.5-9.5-9.5c-7.3-3.2-9.8-7.5-8.7-15.5c0.6-4.7-0.4-8.3-3.2-12.1
			c-4.8-6.4-4.9-11.9-0.2-18.3c2.8-3.9,3.9-7.7,3.3-12.5c-1-7.7,1.3-11.8,8.6-15.1c4.7-2.1,7.8-5.1,9.8-9.9c3-7.1,8.4-9.8,16.1-8.5
			c3.6,0.6,6.8,0,9.9-2.2c9.2-6.5,12.5-6.5,21.5-0.2c3.2,2.3,6.5,3,10.3,2.3c7.3-1.3,12.8,1.4,15.8,8.3c2.2,5.1,5.5,8.3,10.6,10.4
			c5.9,2.4,8.7,7.2,7.9,13.6c-0.7,5.6,0.6,10.3,4,14.8c4.1,5.4,3.5,11.3-0.5,16.6c-3,4-4.3,8.1-3.5,13c1.1,7.2-2,12.3-8.7,15.1
			c-4.5,1.9-7.6,4.8-9.5,9.5C635.2,150.7,629.3,153.5,621.6,152.3L621.6,152.3z M582.5,51.4c-8.1-0.4-8.4-0.5-10.4,4.1
			c-2.5,6.1-6.6,10.2-12.7,12.5c-3.4,1.3-5,3.7-4.3,7.4c1.2,6.3-0.4,11.8-4.5,16.7c-2.9,3.5-2.7,6.9,0.3,10.3c4,4.6,5.2,9.9,4,15.8
			c-0.8,4,0.6,6.8,4.6,8.2c5.7,2,9.8,5.6,11.8,11.4c1.8,5,5.2,6.3,10.2,5.3c4.8-0.9,9.5,0.1,13.1,3.3c4.5,4.1,8.4,3.7,12.7,0.1
			c4.2-3.5,9.1-4.6,14.5-3.3c4.2,1,7.1-0.4,8.5-4.6c2.1-6.1,6.2-10.1,12.2-12.2c3.8-1.3,5.2-4,4.4-7.8c-1.2-6.1,0.4-11.5,4.4-16.2
			c2.9-3.5,2.9-6.8,0-10.3c-4-4.8-5.3-10.2-4.1-16.3c0.7-3.5-0.5-6.2-4.1-7.5c-6.3-2.3-10.6-6.5-12.9-12.9c-1.3-3.6-4-5-7.9-4.3
			c-5.9,1.1-11.2-0.3-15.8-4.2c-3.8-3.2-7.5-2.8-11.1,0.4C591.5,50.7,587,52,582.5,51.4L582.5,51.4z"/>
		<path class="st0" d="M910.2,143.6c0,5.6-3.5,10.5-9.7,12.8c-19.3,7.2-39.5-0.7-39.7-26.3c-0.2-16.5,0-32.9,0-49.4
			c0-4.1-0.1-8.2-5.8-9c7.9-5.4,26.4-5.5,33.7-0.5c4.5,3.1,5.4,7.7,5.4,12.7c0,15.5,0,30.9,0,46.4c0,2.5,0.1,5,0.4,7.5
			c1,7.8,7,10.6,13.7,6.5C908.7,143.9,909.2,143.2,910.2,143.6L910.2,143.6z"/>
		<path class="st1" d="M669.2,100.5c-3-2-5-4.1-2.1-8c2.2-3,0.8-6.2-1.2-8.7c-3.8-4.9-6-10-4.6-16.5c1.1-5-1.2-8.8-6-10.7
			c-5.9-2.3-10-6.1-12.2-12.2c-1.5-4.3-5-6.5-9.8-5.9c-6.5,0.8-12.5-0.1-17.6-4.8c-2.8-2.5-7.6-1.5-9.9-5.2c-0.6-1-1.6-1.7-1.6-3
			c8.1,0.8,15.4-0.6,21.8-6.1c2.8-2.4,5.6-0.3,7.7,1.4c5,4.1,10.4,5.7,16.7,4.6c3.7-0.6,6,0.7,7.3,4.2c2.2,5.8,5.9,10.3,12.2,12.3
			c4,1.2,5.3,4,4.6,8.1c-1,6.2,0.4,11.9,4.5,16.8c2.5,3,2.5,6,0,9c-4.2,4.9-5.5,10.6-4.5,16.8C675.1,96.9,673.5,99.5,669.2,100.5
			L669.2,100.5z"/>
		<path class="st0" d="M669.2,100.5c4.3-1,5.9-3.6,5.2-8c-1-6.2,0.3-11.9,4.5-16.8c2.5-2.9,2.5-6,0-9c-4.2-4.9-5.5-10.5-4.5-16.8
			c0.7-4.1-0.7-6.8-4.6-8.1c-6.2-2-10-6.4-12.2-12.3c-1.3-3.5-3.7-4.8-7.3-4.2c-6.3,1-11.7-0.5-16.7-4.6c-2-1.7-4.9-3.8-7.7-1.4
			c-6.3,5.5-13.7,6.9-21.8,6.1c-1.2,0-2.3-0.1-3.4,0.1c-2.7,0.3-4.6-0.6-5.3-3.3c-0.7-2.8,0.8-4.5,3.2-5.5c3-1.2,6.2-1.7,9.3-0.9
			c3.8,1,6.8-0.2,9.8-2.2c9.1-6.1,12.6-6.1,21.7,0.1c2.9,2,5.8,2.7,9.4,2.2c8-1.3,13.3,1.4,16.5,8.7c2.1,4.7,5.2,7.8,9.9,9.8
			c6.8,2.9,9,6.6,8.3,14.2c-0.5,5.2,0.4,9.7,3.8,13.9c4.4,5.5,4.3,11.5,0,16.9c-3.3,4.2-4.4,8.6-3.7,13.9c0.9,6.2-1.6,11.1-7.3,14
			c-2.3,1.2-4.9,2.8-7.3,0.3C667,105.5,667.6,102.9,669.2,100.5L669.2,100.5z"/>
		<path class="st0" d="M876.1,63.5c-8.8,0-16.5-6.7-16.6-14.6c-0.1-7.9,7.4-14.7,16.4-14.8c9-0.1,16.4,6.4,16.5,14.6
			C892.4,56.6,885,63.4,876.1,63.5L876.1,63.5z"/>
		<path class="st1" d="M582.5,51.4c4.5,0.6,9-0.7,12.9-4.1c3.6-3.2,7.3-3.6,11.1-0.4c4.6,3.9,9.9,5.3,15.8,4.2
			c3.9-0.7,6.6,0.6,7.9,4.3c2.3,6.4,6.6,10.7,12.9,12.9c3.6,1.3,4.8,4,4.1,7.5c-1.2,6.1,0.1,11.5,4.1,16.3c2.9,3.4,2.9,6.8,0,10.3
			c-4,4.7-5.6,10.1-4.4,16.2c0.7,3.8-0.7,6.4-4.4,7.8c-6,2.1-10.2,6.1-12.2,12.2c-1.4,4.2-4.3,5.6-8.5,4.6
			c-5.4-1.3-10.3-0.2-14.5,3.3c-4.3,3.6-8.2,4-12.7-0.1c-3.6-3.2-8.3-4.2-13.1-3.3c-5,1-8.4-0.3-10.2-5.3c-2-5.7-6.1-9.4-11.8-11.4
			c-4-1.4-5.4-4.2-4.6-8.2c1.1-5.9,0-11.2-4-15.8c-3-3.4-3.2-6.8-0.3-10.3c4.1-4.9,5.7-10.4,4.5-16.7c-0.7-3.7,0.9-6.1,4.3-7.4
			c6.1-2.3,10.2-6.4,12.7-12.5C574,50.9,574.4,51,582.5,51.4L582.5,51.4z M622.5,72.7c-0.3-2.8-1.8-5.3-5.4-5.2
			c-3.4,0.1-5,2.5-5.1,5.6c-0.1,3.4,2.1,5.8,5.5,5.7C620.5,78.7,622.5,76.6,622.5,72.7L622.5,72.7z M576.4,72.7c0,3.7,2,6,5,6.2
			c3.3,0.2,5.7-2.1,5.8-5.6c0-3.3-1.8-5.8-5.5-5.8C578.3,67.5,576.9,69.9,576.4,72.7L576.4,72.7z M622.6,122.9
			c-0.3-3.2-2.2-5.3-5.4-5.2c-3.5,0.1-5.4,2.4-5.2,5.9c0.2,3.2,2,5.5,5.3,5.4C620.9,128.9,622.5,126.4,622.6,122.9z M600.5,94.7
			c-0.5-2.6-1.9-5.2-5.5-5.1c-3.5,0.1-5.4,2.6-5.4,5.9c0,3.4,2.1,5.8,5.5,5.8C598.5,101.2,600.3,98.8,600.5,94.7L600.5,94.7z
			 M630.4,89.5c-3.2,0.8-5.2,2.8-5,6.3c0.2,3.3,2.3,5.5,5.4,5.3c3.3-0.2,5.4-2.7,5.1-6.1C635.6,91.9,633.7,89.9,630.4,89.5z
			 M559.7,89.4c-3.1,0.5-5.1,2.2-5.4,5.4c-0.3,3.5,1.6,6,4.9,6.3c3.4,0.3,5.6-2.2,5.8-5.5C565.2,92.3,563.1,90.2,559.7,89.4
			L559.7,89.4z M576.4,123.1c0.2,3.4,1.9,6,5.4,5.9c3.2,0,5.2-2.4,5.3-5.6c0.2-3.5-1.9-5.9-5.4-5.8
			C578.5,117.6,576.6,119.8,576.4,123.1z"/>
		<path class="st0" d="M622.5,72.7c0,3.9-2,6.1-5,6.1c-3.4,0.1-5.5-2.3-5.5-5.7c0-3.1,1.7-5.5,5.1-5.6
			C620.8,67.4,622.2,69.9,622.5,72.7L622.5,72.7z M617.3,76.2c1.8-0.3,2.4-1.6,2.4-3.2c0-1.7-0.8-2.9-2.7-2.7
			c-1.6,0.1-2.1,1.4-2.1,2.8C615,74.7,615.6,76,617.3,76.2L617.3,76.2z"/>
		<path class="st0" d="M576.4,72.7c0.5-2.8,1.9-5.2,5.3-5.2c3.6,0,5.5,2.5,5.5,5.8c0,3.5-2.5,5.8-5.8,5.6
			C578.4,78.7,576.4,76.4,576.4,72.7L576.4,72.7z M584.4,73c-0.3-1.6-1-2.8-2.8-2.6c-1.6,0.2-2.2,1.3-2.2,2.8c0,1.7,0.8,3.1,2.5,3
			C583.4,76.1,584.3,74.7,584.4,73z"/>
		<path class="st0" d="M622.6,122.9c-0.1,3.5-1.7,5.9-5.2,6.1c-3.3,0.1-5.1-2.2-5.3-5.4c-0.2-3.5,1.7-5.8,5.2-5.9
			C620.5,117.6,622.3,119.7,622.6,122.9z M617.4,126.6c2.3,0,3.2-1.2,3.2-3.4c0-2.3-1.4-3.2-3.5-3.1c-2,0.1-3,1.2-3,3.1
			C614.1,125.4,615.1,126.7,617.4,126.6z"/>
		<path class="st0" d="M600.5,94.7c-0.1,4.2-2,6.5-5.3,6.6c-3.4,0.1-5.5-2.4-5.5-5.8c0-3.3,1.8-5.8,5.4-5.9
			C598.6,89.5,600,92.1,600.5,94.7L600.5,94.7z M598.4,95.6c-0.3-1.7-0.9-3-2.9-3.2c-2.3-0.2-3.3,1-3.3,3.2c0,1.9,0.9,3,3,3
			C597.1,98.6,598,97.5,598.4,95.6L598.4,95.6z"/>
		<path class="st0" d="M630.4,89.5c3.3,0.4,5.2,2.4,5.5,5.5c0.3,3.4-1.8,6-5.1,6.1c-3,0.2-5.2-2-5.4-5.3
			C625.2,92.3,627.1,90.4,630.4,89.5z M633.8,95.5c-0.1-1.8-0.9-3.1-3-3.1c-2.2,0-3.5,0.8-3.5,3.2c0,2.3,1.3,3.3,3.5,3.2
			C632.8,98.7,633.7,97.4,633.8,95.5L633.8,95.5z"/>
		<path class="st0" d="M559.7,89.4c3.4,0.8,5.4,2.9,5.2,6.3c-0.2,3.3-2.4,5.8-5.8,5.5c-3.3-0.3-5.2-2.8-4.9-6.3
			C554.6,91.6,556.7,89.9,559.7,89.4L559.7,89.4z M562.7,95.4c-0.1-2-1.1-3-3.1-3c-2,0-3.1,0.9-3.1,3c0,2.3,1.2,3.3,3.4,3.2
			C561.8,98.6,562.7,97.3,562.7,95.4z"/>
		<path class="st0" d="M576.4,123.1c0.3-3.3,2.2-5.5,5.4-5.5c3.5,0,5.5,2.3,5.4,5.8c-0.1,3.2-2.1,5.6-5.3,5.6
			C578.3,129.1,576.6,126.6,576.4,123.1z M581.7,120.1c-2,0-3.3,1.1-3.2,3.4c0.1,1.9,1,3.1,3.1,3.2c2.2,0.1,3.5-0.9,3.6-3.1
			C585.2,121.4,584.1,120.1,581.7,120.1z"/>
		<path class="st1" d="M617.3,76.2c-1.7-0.3-2.4-1.5-2.4-3.1c0-1.3,0.5-2.7,2.1-2.8c1.9-0.2,2.6,1,2.7,2.7
			C619.7,74.6,619.2,75.9,617.3,76.2L617.3,76.2z"/>
		<path class="st1" d="M584.4,73c-0.1,1.7-0.9,3.1-2.5,3.2c-1.7,0.1-2.5-1.3-2.5-3c0-1.5,0.6-2.6,2.2-2.8
			C583.4,70.2,584.1,71.4,584.4,73z"/>
		<path class="st1" d="M617.4,126.6c-2.3,0.1-3.3-1.2-3.2-3.3c0-1.9,1-3.1,3-3.1c2.1-0.1,3.5,0.8,3.5,3.1
			C620.6,125.4,619.7,126.6,617.4,126.6L617.4,126.6z"/>
		<path class="st1" d="M598.4,95.6c-0.4,1.9-1.3,2.9-3.3,2.9c-2.1,0-3-1.1-3-3c0-2.2,1-3.3,3.3-3.2
			C597.5,92.6,598.1,93.9,598.4,95.6L598.4,95.6z"/>
		<path class="st1" d="M633.8,95.5c-0.1,2-1,3.2-3,3.3c-2.1,0.1-3.5-0.9-3.5-3.2c0-2.3,1.3-3.2,3.5-3.2
			C632.9,92.4,633.7,93.6,633.8,95.5L633.8,95.5z"/>
		<path class="st1" d="M562.7,95.4c0,1.9-0.9,3.2-2.9,3.3c-2.2,0.1-3.4-0.9-3.4-3.2c0-2.1,1.2-2.9,3.1-3
			C561.6,92.4,562.6,93.4,562.7,95.4z"/>
		<path class="st1" d="M581.7,120.1c2.4,0,3.6,1.3,3.5,3.4c-0.1,2.2-1.4,3.2-3.6,3.1c-2.1-0.1-3-1.2-3.1-3.2
			C578.4,121.2,579.6,120.1,581.7,120.1z"/>
	</g>
</g>
</svg>
