<?xml version="1.0" encoding="UTF-8"?>
<svg id="Layer_2" data-name="Layer 2" xmlns="http://www.w3.org/2000/svg" viewBox="0 0 1234.26 168.36">
  <defs>
    <style>
      .cls-1 {
        fill: #414141;
      }

      .cls-1, .cls-2, .cls-3 {
        stroke-width: 0px;
      }

      .cls-3 {
        fill: #fdd5b6;
      }
    </style>
  </defs>
  <g id="Layer_1-2" data-name="Layer 1">
    <g>
      <path class="cls-2" d="M42.09,45.36c12.26-4.41,23.2-5.54,34.03-.5,5.12,2.38,6.23,7.43,6.23,12.71-.01,14.65.09,29.31-.08,43.96-.04,3.37.78,4.2,4.18,3.62,11.15-1.92,21.23-5.83,28.44-14.98,12.07-15.32,8.06-39.01-8.52-51.93-7.92-6.18-17.06-8.91-26.84-9.57-12.29-.82-24.26,1.14-35.66,5.84-23.02,9.48-32.15,29.64-24.07,53.62-7.49-.31-12.08-4.56-15.13-10.52-5.7-11.13-6.12-22.81-1.62-34.33C11.4,21.9,27.36,8.36,49.27,2.88,71.61-2.7,93.75-.1,114.46,10.05c18.97,9.3,29.81,24.68,30.14,46.31.33,22.15-9.93,38.5-28.65,49.73-8.94,5.37-18.83,8.37-29.12,9.82-3.47.49-4.59,1.62-4.53,5.26.23,14.15-.08,28.31.14,42.46.06,3.78-1,4.83-4.74,4.69-7.99-.29-16-.33-23.99.01-3.93.17-4.64-1.17-4.62-4.78.15-35.8.13-71.61.13-107.41,0-4.51.08-9.15-7.13-10.8Z"/>
      <path class="cls-2" d="M721.7,88.26c-8.72-.82-13.41-5.97-16.29-12.84-5.5-13.11-4.54-26.21,2.24-38.49,13.31-24.12,34.33-35.88,61.65-36.47,20.21-.44,39.53,3.07,56.29,15.28,24.01,17.49,28.04,53.35,8.94,76.21-11.25,13.47-26.06,20.24-42.84,23.48-7.46,1.44-7.48,1.34-7.48,9.12,0,12.99-.13,25.98.08,38.97.06,3.59-.68,4.99-4.61,4.83-7.98-.32-16-.31-23.99,0-3.8.14-4.72-1.01-4.71-4.73.14-35.64.1-71.28.07-106.92,0-4.49.38-9.29-5.49-10.98,7.3-5.54,27.25-5.41,34.02.14,3.68,3.01,4.62,7.15,4.62,11.64,0,13.66,0,27.31,0,40.97,0,7.19.02,7.29,6.96,6.05,10.5-1.88,19.64-6.32,26.13-15.07,11.39-15.37,7.19-38.48-9.02-51.15-7.77-6.08-16.74-8.85-26.33-9.57-12.81-.96-25.27,1.12-37.08,6.18-22.32,9.55-31.23,29.9-23.15,53.38Z"/>
      <path class="cls-2" d="M191.48,107.69c0-8.38.16-16.17-.06-23.94-.12-4.16-2.02-7.65-6.68-7.94-4.59-.28-6.79,2.68-7.68,6.94-1.11,5.34.26,10.11,3.36,14.95-5.96.65-11.48.31-16.96-1.19-4.46-1.23-7.95-3.56-8.96-8.36-1.08-5.16.41-9.55,4.54-12.92,6.21-5.06,13.7-6.65,21.37-7.3,10.93-.93,21.61.23,31.51,5.42,8.24,4.32,12.53,11.26,12.63,20.55.14,12.65.02,25.3.1,37.95.01,2.48.16,5,.63,7.43,1.58,8.06,7.78,10.21,14.39,5.11.49-.37,1-.71,2.07-1.45-.76,7.41-4.44,12.02-10.52,14.52-12.24,5.05-28.48,3.1-35.26-9.41-1.74-3.2-2.78-.78-3.93.28-7.99,7.32-17.37,10.4-28.05,8.76-9.71-1.49-17.17-6.34-20.45-16.02-3.62-10.7-2.18-20.8,5.29-29.46,9.8-11.36,27.64-13.05,42.66-3.92ZM191.57,127.88c0-1.49-.03-2.98,0-4.47.1-4.62-.77-8.65-6.06-10.02-4.93-1.27-9.38.65-12.26,5.27-3.18,5.08-3.66,10.65-2.43,16.28,1.2,5.52,5.68,7.98,11.34,6.81,7.6-1.56,9.41-4.24,9.41-13.87Z"/>
      <path class="cls-2" d="M381.17,144.4c.29,5.61-3.13,10.64-9.25,13-20.94,8.08-39.47-2.59-39.68-24.68-.17-17.48-.13-34.96-.03-52.45.02-3.13-.3-5.27-4.2-4.66-3.33.52-2.74-1.92-2.76-3.84-.02-2.13-.51-4.67,3.05-4.14,3.11.46,3.97-.83,3.91-3.89-.18-10.15-.02-20.31-.09-30.47-.03-4.36-.64-8.5-6.3-9.47,10.99-4.69,22.07-5.66,33.11-.5,5.15,2.41,6.26,7.45,6.28,12.69.04,9.16.13,18.32-.05,27.47-.06,3.13.64,4.7,4.06,4.19,1.3-.19,2.66.01,3.99-.04,2.74-.11,5.03-.46,5.1,3.83.08,4.44-2.19,4.24-5.22,4.22-7.88-.07-7.88,0-7.88,7.81,0,15.82,0,31.64,0,47.45,0,1.5-.02,3,.04,4.49.41,10.98,5.92,14.22,15.91,8.97Z"/>
      <path class="cls-2" d="M1158.39,143.26c-1.01,7.6-5.39,12.56-12.62,14.94-21.32,7.02-37.59-4.73-37.77-27.61-.24-31.28-.06-62.56-.07-93.85,0-1.66,0-3.33-.07-4.99-.16-3.99-1.44-7.15-6.14-7.96,11.03-4.7,22.13-5.65,33.12-.45,5.55,2.63,6.29,8.12,6.29,13.68-.02,31.45-.02,62.9,0,94.34,0,2.66-.08,5.36.36,7.97,1.33,7.86,8.41,10.29,14.46,5.03.6-.52.82-1.47,1.21-2.21.41.37.81.74,1.22,1.11Z"/>
      <path class="cls-2" d="M469.56,23.87c12.27-4.77,23.27-5.63,34.14-.75,5.54,2.48,6.57,7.9,6.56,13.53-.03,31.44-.02,62.89,0,94.33,0,2.66-.07,5.35.32,7.97.51,3.37,1.73,6.41,5.51,7.59,3.54,1.11,6.53.34,9.14-2.21.58-.56,1.18-1.1,2.34-2.17-.73,7.67-4.25,12.73-10.54,15.19-21.16,8.28-39.7-2.68-39.77-25-.1-32.61-.04-65.22-.06-97.82,0-4.7.03-9.46-7.64-10.65Z"/>
      <path class="cls-2" d="M1203.82,94.32c1.02-1.24,1.82-2.03,2.42-2.95,3.05-4.66,2.42-10.63-1.39-13.58-3.94-3.05-12.07-2.78-15.4.53-2.66,2.63-2.77,7.14-.24,10.5,2.07,2.76,5.04,4.25,8.05,5.71,7.9,3.85,16.31,6.66,23.58,11.8,10.24,7.24,14.4,17.48,13.24,29.46-1.09,11.27-8.82,17.96-18.94,21.73-14.7,5.47-29.32,5.73-43.29-2.4-8.56-4.98-11.63-14.84-7.38-22.73,2.86-5.32,8.53-7.62,14.47-5.87,5.05,1.49,8.15,6.6,7.68,12.01-.32,3.64-3.13,5.26-5.32,7.45,5.88,4.36,16.58,4.68,22.16.75,5.28-3.72,5.35-10.26.1-14.26-5.27-4.02-11.88-5.05-17.72-7.81-1.8-.85-3.71-1.45-5.5-2.32-13.64-6.64-19.31-17.45-16.91-32.16,1.94-11.92,12.58-21.08,26.44-22.68,8.35-.96,16.63-.72,24.66,2.04,4.48,1.54,8.58,3.74,10.95,8.13,3.5,6.51.58,13.03-7.05,15.69-4.6,1.61-9.34,1.52-14.59.97Z"/>
      <path class="cls-2" d="M264.3,146.34c7.07,3.85,13.77,4.14,20.62,1.41,3.31-1.32,5.49-3.73,5.89-7.41.4-3.75-1.51-6.33-4.44-8.32-5.58-3.79-12.18-5.22-18.31-7.71-11.49-4.64-20.28-11.54-21.48-24.93-1.43-16.05,7.1-27.53,23.11-31.08,9.44-2.09,18.82-1.79,28.07,1.16,2.55.81,4.93,1.98,7.09,3.58,3.9,2.89,6.06,6.71,5.41,11.6-.66,4.92-4.42,7.21-8.62,8.77-4.45,1.66-9.09,1.35-13.65,1.05-.4-1.28.63-1.57,1.07-2.18,3.31-4.58,3.35-10.42.08-13.77-3.34-3.42-11.32-3.86-15.37-.84-3.62,2.69-3.83,8.08-.47,11.93,2.96,3.39,7.16,4.77,11.04,6.61,6.74,3.2,13.8,5.73,19.96,10.12,10.36,7.39,14.5,17.7,13.16,29.94-1.22,11.16-8.97,17.53-18.82,21.24-14.5,5.47-28.96,5.7-42.87-2.13-8.51-4.79-11.92-14.11-8.27-22.09,2.42-5.29,6.67-7.74,12.43-7.14,5.26.55,8.93,3.79,10.07,8.9.92,4.12-.34,6.75-5.7,11.3Z"/>
      <path class="cls-2" d="M911.39,157.41c11.15-13.02,21.4-25.21,31.95-37.13,2.44-2.76,2.5-4.63.6-7.61-6.14-9.68-12.06-19.5-17.94-29.35-3.25-5.44-6.91-10.23-13.94-11.39,10.2-6.79,21.25-5.83,32.07-3.38,12.32,2.79,15.85,14.74,22.69,23.94,5.65-6.66,11.4-13,16.62-19.75,3.03-3.92,6.34-5.9,11.32-5.18,2.25.32,4.58.05,7.9.05-2.37,2.88-4.18,5.14-6.04,7.34-7.09,8.38-14.13,16.81-21.36,25.08-1.73,1.97-1.83,3.32-.41,5.53,7.36,11.46,14.54,23.05,21.79,34.58,5.36,8.53,8.85,9.12,16.68,2.6-.9,7.75-4.95,12.79-11.93,15.35-15.43,5.65-29.26.75-37.93-13.27-2.88-4.66-5.88-9.27-8.51-14.07-1.71-3.13-2.77-3.73-5.32-.57-5.96,7.37-12.48,14.29-18.4,21.7-3.26,4.09-6.74,6.51-12.17,5.58-2.08-.35-4.26-.06-7.68-.06Z"/>
      <path class="cls-2" d="M419.45,109.59c1.78,0,3.22,0,4.65,0,7.6,0,13.19-4.14,14.89-11.49,1.25-5.42,1.09-10.95-.71-16.26-2.15-6.34-7.1-7.35-11.68-2.41-3.25,3.5-4.92,7.88-6.05,12.43-2.96,11.96-2.93,23.99-.29,35.98,1.84,8.38,4.84,16.31,14.31,18.61,9.58,2.32,17.25-1.08,22.67-9.97-.39,10.46-6.73,17.98-18.1,20.84-10.25,2.58-20.52,1.72-30.31-2.38-9.74-4.07-16.25-11.29-19.65-21.31-3.82-11.27-4.75-22.8-2.26-34.41,4.48-20.86,21.03-32.87,42.72-31.48,6.57.42,12.89,1.69,18.55,5.15,10.62,6.5,15.36,18.86,11.34,29.15-3.61,9.23-16.78,15.29-28.79,13.06-4.1-.76-8.52-1.2-11.28-5.5Z"/>
      <path class="cls-2" d="M1049.46,109.78c-.48,7.7.32,14.15,2.11,20.4,2.28,7.95,5.84,15.13,15.19,16.56,9.32,1.42,16.56-1.95,21.33-10.69-.3,11.37-7.83,19.6-20.58,21.87-8.94,1.59-17.96.94-26.53-2.43-10.16-3.99-17.21-11.09-20.8-21.51-4.35-12.62-5.06-25.43-1.55-38.3,4.99-18.28,21.33-29.12,41.53-27.98,6.75.38,13.24,1.65,19.03,5.28,10.37,6.49,15.04,18.65,11.22,28.83-3.51,9.36-16.46,15.38-28.66,13.35-4.26-.71-8.35-1.84-12.28-5.39ZM1070.44,90.02c-.07-.83,0-2.88-.48-4.78-.88-3.47-1.23-7.8-5.52-8.68-4.64-.95-7.26,2.47-9.32,6.06-3.99,6.93-5.2,14.58-5.89,22.42-.31,3.46,1.26,4.3,4.23,4.54,10.53.85,17.16-6.26,16.99-19.56Z"/>
      <path class="cls-2" d="M621.57,152.28c-4.37-.73-8.02.58-11.6,3.21-6.5,4.78-11.14,4.85-17.78.13-4.05-2.88-8.07-3.95-13.04-3.37-7.63.89-12.15-1.69-15.05-8.7-1.93-4.66-4.93-7.54-9.45-9.52-7.32-3.19-9.8-7.46-8.74-15.46.61-4.65-.44-8.35-3.19-12.06-4.78-6.45-4.86-11.91-.17-18.31,2.83-3.87,3.94-7.7,3.31-12.52-1.01-7.7,1.33-11.78,8.57-15.09,4.67-2.13,7.76-5.13,9.78-9.91,2.99-7.11,8.44-9.77,16.11-8.52,3.64.59,6.77-.02,9.86-2.2,9.25-6.5,12.5-6.53,21.47-.16,3.22,2.28,6.45,2.97,10.3,2.31,7.31-1.26,12.78,1.37,15.79,8.31,2.21,5.1,5.52,8.32,10.61,10.4,5.89,2.41,8.69,7.24,7.91,13.57-.69,5.62.58,10.28,4.04,14.84,4.11,5.41,3.54,11.35-.51,16.62-3.04,3.96-4.26,8.05-3.51,12.98,1.1,7.23-2.03,12.34-8.67,15.11-4.55,1.9-7.62,4.75-9.5,9.47-2.92,7.32-8.76,10.08-16.51,8.88ZM582.46,51.39c-8.11-.37-8.44-.51-10.37,4.11-2.53,6.07-6.58,10.22-12.71,12.5-3.39,1.27-4.97,3.71-4.28,7.41,1.19,6.3-.42,11.85-4.5,16.72-2.94,3.51-2.68,6.92.27,10.27,4.03,4.58,5.17,9.89,4.03,15.81-.76,3.98.64,6.83,4.6,8.21,5.66,1.98,9.75,5.63,11.75,11.36,1.75,5.03,5.18,6.29,10.17,5.32,4.78-.93,9.55.07,13.11,3.32,4.49,4.11,8.37,3.7,12.7.1,4.23-3.52,9.14-4.56,14.5-3.27,4.24,1.02,7.09-.41,8.51-4.6,2.06-6.08,6.23-10.08,12.25-12.2,3.76-1.32,5.16-3.96,4.42-7.77-1.2-6.14.39-11.53,4.36-16.25,2.91-3.46,2.94-6.85.02-10.29-4.03-4.75-5.35-10.15-4.12-16.28.7-3.49-.51-6.15-4.14-7.46-6.3-2.28-10.61-6.55-12.87-12.94-1.29-3.63-4.01-5.01-7.89-4.28-5.9,1.11-11.22-.32-15.82-4.19-3.84-3.23-7.48-2.83-11.12.36-3.84,3.37-8.35,4.69-12.87,4.06Z"/>
      <path class="cls-2" d="M910.19,143.65c.01,5.61-3.47,10.5-9.71,12.82-19.32,7.22-39.48-.66-39.74-26.31-.17-16.46-.01-32.92-.05-49.38,0-4.09-.14-8.2-5.84-9,7.88-5.38,26.44-5.5,33.69-.49,4.48,3.09,5.4,7.7,5.39,12.72-.01,15.46-.01,30.92.02,46.38,0,2.49.06,5,.37,7.46.98,7.75,7.02,10.6,13.67,6.51.7-.43,1.25-1.11,2.19-.72Z"/>
      <path class="cls-3" d="M669.17,100.5c-3.04-2.04-5.01-4.13-2.12-8,2.21-2.96.81-6.16-1.18-8.72-3.83-4.91-6.05-10.04-4.61-16.49,1.12-5.04-1.17-8.85-5.95-10.7-5.93-2.29-9.98-6.07-12.16-12.19-1.54-4.31-4.98-6.48-9.81-5.86-6.52.83-12.49-.14-17.6-4.79-2.78-2.53-7.57-1.48-9.87-5.19-.6-.97-1.59-1.71-1.63-2.98,8.06.83,15.42-.58,21.76-6.11,2.79-2.43,5.61-.33,7.65,1.36,4.96,4.11,10.42,5.67,16.68,4.62,3.65-.61,5.96.68,7.31,4.23,2.22,5.83,5.92,10.31,12.17,12.26,3.95,1.24,5.26,4.02,4.6,8.08-1,6.21.36,11.87,4.52,16.75,2.52,2.96,2.52,6.03-.01,8.97-4.2,4.88-5.49,10.57-4.5,16.76.71,4.43-.95,7-5.24,8Z"/>
      <path class="cls-2" d="M669.17,100.5c4.29-1,5.94-3.57,5.24-8-.99-6.19.3-11.88,4.5-16.76,2.53-2.94,2.53-6.01.01-8.97-4.16-4.88-5.52-10.54-4.52-16.75.65-4.06-.65-6.85-4.6-8.08-6.25-1.95-9.95-6.44-12.17-12.26-1.35-3.55-3.66-4.84-7.31-4.23-6.26,1.04-11.72-.51-16.68-4.62-2.04-1.69-4.87-3.79-7.65-1.36-6.34,5.53-13.7,6.93-21.76,6.11-1.15.01-2.3-.07-3.43.06-2.68.3-4.62-.61-5.3-3.32-.69-2.76.84-4.53,3.17-5.48,2.97-1.22,6.2-1.68,9.3-.87,3.76.99,6.75-.16,9.79-2.2,9.09-6.11,12.57-6.1,21.7.14,2.91,1.99,5.81,2.74,9.37,2.16,8-1.31,13.3,1.37,16.53,8.72,2.08,4.72,5.16,7.79,9.88,9.81,6.79,2.91,9.03,6.62,8.35,14.16-.47,5.25.43,9.69,3.81,13.89,4.39,5.47,4.31,11.49,0,16.94-3.34,4.23-4.42,8.62-3.69,13.89.86,6.22-1.62,11.06-7.29,14-2.32,1.2-4.86,2.82-7.26.29-2.2-2.31-1.57-4.84.02-7.26Z"/>
      <path class="cls-2" d="M876.1,63.46c-8.84.02-16.45-6.7-16.56-14.63-.11-7.92,7.39-14.71,16.36-14.81,9-.1,16.37,6.44,16.45,14.6.08,8-7.38,14.81-16.26,14.84Z"/>
      <path class="cls-3" d="M582.46,51.39c4.52.64,9.02-.68,12.87-4.06,3.64-3.19,7.28-3.59,11.12-.36,4.6,3.87,9.92,5.3,15.82,4.19,3.88-.73,6.61.64,7.89,4.28,2.27,6.39,6.57,10.67,12.87,12.94,3.63,1.31,4.84,3.97,4.14,7.46-1.23,6.14.09,11.53,4.12,16.28,2.92,3.45,2.89,6.83-.02,10.29-3.97,4.73-5.56,10.11-4.36,16.25.74,3.81-.67,6.45-4.42,7.77-6.01,2.11-10.19,6.11-12.25,12.2-1.42,4.19-4.28,5.62-8.51,4.6-5.36-1.29-10.27-.24-14.5,3.27-4.33,3.6-8.21,4.01-12.7-.1-3.56-3.25-8.33-4.25-13.11-3.32-5,.97-8.42-.29-10.17-5.32-2-5.72-6.09-9.38-11.75-11.36-3.96-1.39-5.36-4.24-4.6-8.21,1.14-5.92,0-11.23-4.03-15.81-2.95-3.36-3.21-6.76-.27-10.27,4.08-4.88,5.69-10.43,4.5-16.72-.7-3.69.89-6.14,4.28-7.41,6.12-2.29,10.17-6.44,12.71-12.5,1.93-4.62,2.27-4.48,10.37-4.11ZM622.54,72.7c-.3-2.83-1.79-5.28-5.43-5.19-3.37.08-5.01,2.54-5.07,5.59-.06,3.42,2.06,5.84,5.45,5.74,3.06-.09,5.01-2.26,5.04-6.14ZM576.39,72.7c.03,3.69,2.01,6.02,4.98,6.22,3.3.23,5.72-2.12,5.75-5.59.03-3.35-1.81-5.84-5.45-5.83-3.4.01-4.81,2.45-5.28,5.2ZM622.62,122.91c-.31-3.24-2.16-5.34-5.38-5.25-3.49.09-5.38,2.45-5.17,5.94.2,3.17,2.02,5.49,5.32,5.37,3.51-.12,5.13-2.58,5.23-6.06ZM600.47,94.65c-.52-2.56-1.87-5.18-5.52-5.08-3.54.1-5.39,2.58-5.36,5.89.03,3.36,2.09,5.84,5.52,5.78,3.4-.06,5.23-2.44,5.35-6.6ZM630.37,89.51c-3.22.85-5.2,2.78-5,6.29.19,3.3,2.33,5.47,5.38,5.32,3.28-.17,5.38-2.69,5.11-6.14-.25-3.07-2.16-5.07-5.49-5.47ZM559.74,89.43c-3.08.51-5.11,2.17-5.41,5.41-.33,3.53,1.59,6,4.86,6.33,3.42.34,5.59-2.17,5.78-5.47.2-3.35-1.86-5.46-5.24-6.27ZM576.37,123.12c.21,3.45,1.93,5.96,5.43,5.94,3.18-.01,5.2-2.38,5.33-5.57.15-3.52-1.89-5.86-5.4-5.85-3.21,0-5.1,2.13-5.36,5.48Z"/>
      <path class="cls-1" d="M622.54,72.7c-.04,3.88-1.98,6.05-5.04,6.14-3.4.1-5.51-2.32-5.45-5.74.05-3.05,1.7-5.51,5.07-5.59,3.63-.09,5.13,2.36,5.43,5.19ZM617.32,76.24c1.85-.34,2.4-1.6,2.37-3.19-.04-1.68-.81-2.86-2.66-2.7-1.61.14-2.1,1.45-2.08,2.8.02,1.55.65,2.82,2.38,3.09Z"/>
      <path class="cls-1" d="M576.39,72.7c.47-2.75,1.88-5.19,5.28-5.2,3.63-.01,5.48,2.48,5.45,5.83-.03,3.48-2.45,5.82-5.75,5.59-2.96-.2-4.95-2.53-4.98-6.22ZM584.36,72.99c-.26-1.57-.97-2.82-2.84-2.64-1.58.16-2.15,1.32-2.18,2.8-.03,1.72.8,3.1,2.49,3.04,1.62-.06,2.46-1.46,2.53-3.2Z"/>
      <path class="cls-1" d="M622.62,122.91c-.1,3.48-1.72,5.94-5.23,6.06-3.3.11-5.12-2.21-5.32-5.37-.22-3.49,1.67-5.85,5.17-5.94,3.22-.09,5.07,2.01,5.38,5.25ZM617.37,126.6c2.28.03,3.23-1.18,3.2-3.37-.03-2.34-1.4-3.16-3.5-3.11-2,.06-2.95,1.19-2.96,3.14,0,2.16.95,3.41,3.26,3.34Z"/>
      <path class="cls-1" d="M600.47,94.65c-.13,4.16-1.96,6.54-5.35,6.6-3.43.06-5.49-2.43-5.52-5.78-.03-3.32,1.81-5.79,5.36-5.89,3.65-.1,5,2.52,5.52,5.08ZM598.39,95.64c-.26-1.69-.92-3.04-2.94-3.21-2.29-.19-3.34.98-3.34,3.15,0,1.92.9,3.02,2.97,3.01,1.98-.01,2.95-1.05,3.31-2.94Z"/>
      <path class="cls-1" d="M630.37,89.51c3.33.4,5.24,2.4,5.49,5.47.28,3.44-1.82,5.96-5.11,6.14-3.05.16-5.19-2.02-5.38-5.32-.2-3.51,1.77-5.44,5-6.29ZM633.8,95.46c-.12-1.85-.92-3.09-3.01-3.13-2.16-.04-3.49.83-3.47,3.18.02,2.3,1.34,3.3,3.48,3.23,2-.06,2.91-1.31,3-3.29Z"/>
      <path class="cls-1" d="M559.74,89.43c3.38.81,5.44,2.92,5.24,6.27-.2,3.3-2.36,5.81-5.78,5.47-3.27-.33-5.19-2.8-4.86-6.33.3-3.24,2.33-4.9,5.41-5.41ZM562.67,95.38c-.11-1.97-1.09-3.01-3.14-2.97-1.97.04-3.09.92-3.13,2.98-.05,2.31,1.21,3.33,3.38,3.25,2.02-.07,2.88-1.33,2.89-3.26Z"/>
      <path class="cls-1" d="M576.37,123.12c.26-3.35,2.15-5.47,5.36-5.48,3.51,0,5.55,2.33,5.4,5.85-.13,3.2-2.14,5.56-5.33,5.57-3.5.01-5.22-2.5-5.43-5.94ZM581.67,120.09c-2.04.04-3.26,1.13-3.18,3.38.06,1.92,1,3.05,3.06,3.15,2.25.11,3.53-.92,3.61-3.1.08-2.15-1.07-3.41-3.49-3.43Z"/>
      <path class="cls-3" d="M617.32,76.24c-1.72-.27-2.36-1.54-2.38-3.09-.02-1.35.47-2.66,2.08-2.8,1.86-.16,2.62,1.02,2.66,2.7.04,1.59-.52,2.85-2.37,3.19Z"/>
      <path class="cls-3" d="M584.36,72.99c-.06,1.74-.91,3.14-2.53,3.2-1.69.06-2.52-1.31-2.49-3.04.03-1.47.59-2.64,2.18-2.8,1.86-.18,2.57,1.07,2.84,2.64Z"/>
      <path class="cls-3" d="M617.37,126.6c-2.3.07-3.26-1.18-3.25-3.33,0-1.95.96-3.09,2.96-3.14,2.1-.06,3.46.76,3.5,3.11.03,2.2-.92,3.4-3.2,3.37Z"/>
      <path class="cls-3" d="M598.39,95.64c-.36,1.89-1.33,2.93-3.31,2.94-2.08.01-2.98-1.08-2.97-3.01,0-2.16,1.05-3.34,3.34-3.15,2.02.17,2.69,1.52,2.94,3.21Z"/>
      <path class="cls-3" d="M633.8,95.46c-.09,1.98-1,3.22-3,3.29-2.14.07-3.46-.93-3.48-3.23-.02-2.35,1.31-3.22,3.47-3.18,2.08.03,2.89,1.28,3.01,3.13Z"/>
      <path class="cls-3" d="M562.68,95.38c-.02,1.93-.87,3.18-2.89,3.26-2.17.08-3.42-.94-3.38-3.25.04-2.05,1.16-2.94,3.13-2.98,2.05-.04,3.02.99,3.14,2.97Z"/>
      <path class="cls-3" d="M581.67,120.09c2.43.03,3.57,1.28,3.49,3.43-.08,2.18-1.36,3.22-3.61,3.1-2.06-.11-3-1.23-3.06-3.15-.07-2.25,1.14-3.34,3.18-3.38Z"/>
    </g>
  </g>
</svg>