<?xml version="1.0" encoding="UTF-8"?>
<svg id="Layer_2" data-name="Layer 2" xmlns="http://www.w3.org/2000/svg" viewBox="0 0 151.59 149.91">
  <defs>
    <style>
      .cls-1 {
        fill: #414141;
      }

      .cls-1, .cls-2 {
        stroke-width: 0px;
      }

      .cls-2 {
        fill: #fdd5b6;
      }
    </style>
  </defs>
  <g id="Layer_1-2" data-name="Layer 1">
    <path class="cls-1" d="M82.5,143.07c-4.37-.73-8.02.58-11.6,3.21-6.5,4.78-11.14,4.85-17.78.13-4.05-2.88-8.07-3.95-13.04-3.37-7.63.89-12.15-1.69-15.05-8.7-1.93-4.66-4.93-7.54-9.45-9.52-7.32-3.19-9.8-7.46-8.74-15.46.61-4.65-.44-8.35-3.19-12.06-4.78-6.45-4.86-11.91-.17-18.31,2.83-3.87,3.94-7.7,3.31-12.52-1.01-7.7,1.33-11.78,8.57-15.09,4.67-2.13,7.76-5.13,9.78-9.91,2.99-7.11,8.44-9.77,16.11-8.52,3.64.59,6.77-.02,9.86-2.2,9.25-6.5,12.5-6.53,21.47-.16,3.22,2.28,6.45,2.97,10.3,2.31,7.31-1.26,12.78,1.37,15.79,8.31,2.21,5.1,5.52,8.32,10.61,10.4,5.89,2.41,8.69,7.24,7.91,13.57-.69,5.62.58,10.28,4.04,14.84,4.11,5.41,3.54,11.35-.51,16.62-3.04,3.96-4.26,8.05-3.51,12.98,1.1,7.23-2.03,12.34-8.67,15.11-4.55,1.9-7.62,4.75-9.5,9.47-2.92,7.32-8.76,10.08-16.51,8.88ZM43.38,42.19c-8.11-.37-8.44-.51-10.37,4.11-2.53,6.07-6.58,10.22-12.71,12.5-3.39,1.27-4.97,3.71-4.28,7.41,1.19,6.3-.42,11.85-4.5,16.72-2.94,3.51-2.68,6.92.27,10.27,4.03,4.58,5.17,9.89,4.03,15.81-.76,3.98.64,6.83,4.6,8.21,5.66,1.98,9.75,5.63,11.75,11.36,1.75,5.03,5.18,6.29,10.17,5.32,4.78-.93,9.55.07,13.11,3.32,4.49,4.11,8.37,3.7,12.7.1,4.23-3.52,9.14-4.56,14.5-3.27,4.24,1.02,7.09-.41,8.51-4.6,2.06-6.08,6.23-10.08,12.25-12.2,3.76-1.32,5.16-3.96,4.42-7.77-1.2-6.14.39-11.53,4.36-16.25,2.91-3.46,2.94-6.85.02-10.29-4.03-4.75-5.35-10.15-4.12-16.28.7-3.49-.51-6.15-4.14-7.46-6.3-2.28-10.61-6.55-12.87-12.94-1.29-3.63-4.01-5.01-7.89-4.28-5.9,1.11-11.22-.32-15.82-4.19-3.84-3.23-7.48-2.83-11.12.36-3.84,3.37-8.35,4.69-12.87,4.06Z"/>
    <path class="cls-2" d="M130.1,91.29c-3.04-2.04-5.01-4.13-2.12-8,2.21-2.96.81-6.16-1.18-8.72-3.83-4.91-6.05-10.04-4.61-16.49,1.12-5.04-1.17-8.85-5.95-10.7-5.93-2.29-9.98-6.07-12.16-12.19-1.54-4.31-4.98-6.48-9.81-5.86-6.52.83-12.49-.14-17.6-4.79-2.78-2.53-7.57-1.48-9.87-5.19-.6-.97-1.59-1.71-1.63-2.98,8.06.83,15.42-.58,21.76-6.11,2.79-2.43,5.61-.33,7.65,1.36,4.96,4.11,10.42,5.67,16.68,4.62,3.65-.61,5.96.68,7.31,4.23,2.22,5.83,5.92,10.31,12.17,12.26,3.95,1.24,5.26,4.02,4.6,8.08-1,6.21.36,11.87,4.52,16.75,2.52,2.96,2.52,6.03-.01,8.97-4.2,4.88-5.49,10.57-4.5,16.76.71,4.43-.95,7-5.24,8Z"/>
    <path class="cls-1" d="M130.1,91.29c4.29-1,5.94-3.57,5.24-8-.99-6.19.3-11.88,4.5-16.76,2.53-2.94,2.53-6.01.01-8.97-4.16-4.88-5.52-10.54-4.52-16.75.65-4.06-.65-6.85-4.6-8.08-6.25-1.95-9.95-6.44-12.17-12.26-1.35-3.55-3.66-4.84-7.31-4.23-6.26,1.04-11.72-.51-16.68-4.62-2.04-1.69-4.87-3.79-7.65-1.36-6.34,5.53-13.7,6.93-21.76,6.11-1.15.01-2.3-.07-3.43.06-2.68.3-4.62-.61-5.3-3.32-.69-2.76.84-4.53,3.17-5.48,2.97-1.22,6.2-1.68,9.3-.87,3.76.99,6.75-.16,9.79-2.2,9.09-6.11,12.57-6.1,21.7.14,2.91,1.99,5.81,2.74,9.37,2.16,8-1.31,13.3,1.37,16.53,8.72,2.08,4.72,5.16,7.79,9.88,9.81,6.79,2.91,9.03,6.62,8.35,14.16-.47,5.25.43,9.69,3.81,13.89,4.39,5.47,4.31,11.49,0,16.94-3.34,4.23-4.42,8.62-3.69,13.89.86,6.22-1.62,11.06-7.29,14-2.32,1.2-4.86,2.82-7.26.29-2.2-2.31-1.57-4.84.02-7.26Z"/>
    <path class="cls-2" d="M43.38,42.19c4.52.64,9.02-.68,12.87-4.06,3.64-3.19,7.28-3.59,11.12-.36,4.6,3.87,9.92,5.3,15.82,4.19,3.88-.73,6.61.64,7.89,4.28,2.27,6.39,6.57,10.67,12.87,12.94,3.63,1.31,4.84,3.97,4.14,7.46-1.23,6.14.09,11.53,4.12,16.28,2.92,3.45,2.89,6.83-.02,10.29-3.97,4.73-5.56,10.11-4.36,16.25.74,3.81-.67,6.45-4.42,7.77-6.01,2.11-10.19,6.11-12.25,12.2-1.42,4.19-4.28,5.62-8.51,4.6-5.36-1.29-10.27-.24-14.5,3.27-4.33,3.6-8.21,4.01-12.7-.1-3.56-3.25-8.33-4.25-13.11-3.32-5,.97-8.42-.29-10.17-5.32-2-5.72-6.09-9.38-11.75-11.36-3.96-1.39-5.36-4.24-4.6-8.21,1.14-5.92,0-11.23-4.03-15.81-2.95-3.36-3.21-6.76-.27-10.27,4.08-4.88,5.69-10.43,4.5-16.72-.7-3.69.89-6.14,4.28-7.41,6.12-2.29,10.17-6.44,12.71-12.5,1.93-4.62,2.27-4.48,10.37-4.11ZM83.47,63.49c-.3-2.83-1.79-5.28-5.43-5.19-3.37.08-5.01,2.54-5.07,5.59-.06,3.42,2.06,5.84,5.45,5.74,3.06-.09,5.01-2.26,5.04-6.14ZM37.32,63.5c.03,3.69,2.01,6.02,4.98,6.22,3.3.23,5.72-2.12,5.75-5.59.03-3.35-1.81-5.84-5.45-5.83-3.4.01-4.81,2.45-5.28,5.2ZM83.55,113.7c-.31-3.24-2.16-5.34-5.38-5.25-3.49.09-5.38,2.45-5.17,5.94.2,3.17,2.02,5.49,5.32,5.37,3.51-.12,5.13-2.58,5.23-6.06ZM61.39,85.44c-.52-2.56-1.87-5.18-5.52-5.08-3.54.1-5.39,2.58-5.36,5.89.03,3.36,2.09,5.84,5.52,5.78,3.4-.06,5.23-2.44,5.35-6.6ZM91.3,80.31c-3.22.85-5.2,2.78-5,6.29.19,3.3,2.33,5.47,5.38,5.32,3.28-.17,5.38-2.69,5.11-6.14-.25-3.07-2.16-5.07-5.49-5.47ZM20.67,80.22c-3.08.51-5.11,2.17-5.41,5.41-.33,3.53,1.59,6,4.86,6.33,3.42.34,5.59-2.17,5.78-5.47.2-3.35-1.86-5.46-5.24-6.27ZM37.3,113.92c.21,3.45,1.93,5.96,5.43,5.94,3.18-.01,5.2-2.38,5.33-5.57.15-3.52-1.89-5.86-5.4-5.85-3.21,0-5.1,2.13-5.36,5.48Z"/>
    <path class="cls-1" d="M83.47,63.49c-.04,3.88-1.98,6.05-5.04,6.14-3.4.1-5.51-2.32-5.45-5.74.05-3.05,1.7-5.51,5.07-5.59,3.63-.09,5.13,2.36,5.43,5.19ZM78.25,67.04c1.85-.34,2.4-1.6,2.37-3.19-.04-1.68-.81-2.86-2.66-2.7-1.61.14-2.1,1.45-2.08,2.8.02,1.55.65,2.82,2.38,3.09Z"/>
    <path class="cls-1" d="M37.32,63.5c.47-2.75,1.88-5.19,5.28-5.2,3.63-.01,5.48,2.48,5.45,5.83-.03,3.48-2.45,5.82-5.75,5.59-2.96-.2-4.95-2.53-4.98-6.22ZM45.29,63.79c-.26-1.57-.97-2.82-2.84-2.64-1.58.16-2.15,1.32-2.18,2.8-.03,1.72.8,3.1,2.49,3.04,1.62-.06,2.46-1.46,2.53-3.2Z"/>
    <path class="cls-1" d="M83.55,113.7c-.1,3.48-1.72,5.94-5.23,6.06-3.3.11-5.12-2.21-5.32-5.37-.22-3.49,1.67-5.85,5.17-5.94,3.22-.09,5.07,2.01,5.38,5.25ZM78.3,117.39c2.28.03,3.23-1.18,3.2-3.37-.03-2.34-1.4-3.16-3.5-3.11-2,.06-2.95,1.19-2.96,3.14,0,2.16.95,3.41,3.26,3.34Z"/>
    <path class="cls-1" d="M61.39,85.44c-.13,4.16-1.96,6.54-5.35,6.6-3.43.06-5.49-2.43-5.52-5.78-.03-3.32,1.81-5.79,5.36-5.89,3.65-.1,5,2.52,5.52,5.08ZM59.31,86.43c-.26-1.69-.92-3.04-2.94-3.21-2.29-.19-3.34.98-3.34,3.15,0,1.92.9,3.02,2.97,3.01,1.98-.01,2.95-1.05,3.31-2.94Z"/>
    <path class="cls-1" d="M91.3,80.31c3.33.4,5.24,2.4,5.49,5.47.28,3.44-1.82,5.96-5.11,6.14-3.05.16-5.19-2.02-5.38-5.32-.2-3.51,1.77-5.44,5-6.29ZM94.73,86.25c-.12-1.85-.92-3.09-3.01-3.13-2.16-.04-3.49.83-3.47,3.18.02,2.3,1.34,3.3,3.48,3.23,2-.06,2.91-1.31,3-3.29Z"/>
    <path class="cls-1" d="M20.67,80.22c3.38.81,5.44,2.92,5.24,6.27-.2,3.3-2.36,5.81-5.78,5.47-3.27-.33-5.19-2.8-4.86-6.33.3-3.24,2.33-4.9,5.41-5.41ZM23.6,86.17c-.11-1.97-1.09-3.01-3.14-2.97-1.97.04-3.09.92-3.13,2.98-.05,2.31,1.21,3.33,3.38,3.25,2.02-.07,2.88-1.33,2.89-3.26Z"/>
    <path class="cls-1" d="M37.3,113.92c.26-3.35,2.15-5.47,5.36-5.48,3.51,0,5.55,2.33,5.4,5.85-.13,3.2-2.14,5.56-5.33,5.57-3.5.01-5.22-2.5-5.43-5.94ZM42.6,110.88c-2.04.04-3.26,1.13-3.18,3.38.06,1.92,1,3.05,3.06,3.15,2.25.11,3.53-.92,3.61-3.1.08-2.15-1.07-3.41-3.49-3.43Z"/>
    <path class="cls-2" d="M78.25,67.04c-1.72-.27-2.36-1.54-2.38-3.09-.02-1.35.47-2.66,2.08-2.8,1.86-.16,2.62,1.02,2.66,2.7.04,1.59-.52,2.85-2.37,3.19Z"/>
    <path class="cls-2" d="M45.29,63.79c-.06,1.74-.91,3.14-2.53,3.2-1.69.06-2.52-1.31-2.49-3.04.03-1.47.59-2.64,2.18-2.8,1.86-.18,2.57,1.07,2.84,2.64Z"/>
    <path class="cls-2" d="M78.29,117.39c-2.3.07-3.26-1.18-3.25-3.33,0-1.95.96-3.09,2.96-3.14,2.1-.06,3.46.76,3.5,3.11.03,2.2-.92,3.4-3.2,3.37Z"/>
    <path class="cls-2" d="M59.31,86.43c-.36,1.89-1.33,2.93-3.31,2.94-2.08.01-2.98-1.08-2.97-3.01,0-2.16,1.05-3.34,3.34-3.15,2.02.17,2.69,1.52,2.94,3.21Z"/>
    <path class="cls-2" d="M94.73,86.25c-.09,1.98-1,3.22-3,3.29-2.14.07-3.46-.93-3.48-3.23-.02-2.35,1.31-3.22,3.47-3.18,2.08.03,2.89,1.28,3.01,3.13Z"/>
    <path class="cls-2" d="M23.6,86.17c-.02,1.93-.87,3.18-2.89,3.26-2.17.08-3.42-.94-3.38-3.25.04-2.05,1.16-2.94,3.13-2.98,2.05-.04,3.02.99,3.14,2.97Z"/>
    <path class="cls-2" d="M42.6,110.88c2.43.03,3.57,1.28,3.49,3.43-.08,2.18-1.36,3.22-3.61,3.1-2.06-.11-3-1.23-3.06-3.15-.07-2.25,1.14-3.34,3.18-3.38Z"/>
  </g>
</svg>